<?xml version="1.0" standalone="no"?>
<!DOCTYPE svg PUBLIC "-//W3C//DTD SVG 1.1//EN" "http://www.w3.org/Graphics/SVG/1.1/DTD/svg11.dtd" >
<!--
2013-9-30: Created.
-->
<svg>
<metadata>
Created by iconfont
</metadata>
<defs>

<font id="iconfont" horiz-adv-x="1024" >
  <font-face
    font-family="iconfont"
    font-weight="500"
    font-stretch="normal"
    units-per-em="1024"
    ascent="896"
    descent="-128"
  />
    <missing-glyph />
    
    <glyph glyph-name="r-fenxiang-12" unicode="&#59094;" d="M785.621333 192.12800000000004a42.666667 42.666667 0 0 0 3.328-56.618667l-3.328-3.712-77.568-77.568A371.797333 371.797333 0 0 0 174.464 572.0319999999999l7.765333 8.021333 77.568 77.568a42.666667 42.666667 0 0 0 63.658667-56.618666l-3.328-3.712L242.56 519.6800000000001a286.464 286.464 0 0 1 397.909333-412.117333l7.253334 6.997333 77.568 77.568a42.666667 42.666667 0 0 0 60.330666 0zM938.666667 768v-298.666667a42.666667 42.666667 0 1 0-85.333334 0V665.514667l-350.037333-350.08a42.666667 42.666667 0 1 0-60.330667 60.373333L792.490667 725.333333 597.333333 725.333333a42.666667 42.666667 0 1 0 0 85.333334h298.666667a42.666667 42.666667 0 0 0 42.666667-42.666667z"  horiz-adv-x="1024" />

    
    <glyph glyph-name="s-shoucangon-12" unicode="&#59095;" d="M512.533333 707.285333l-6.826666 8.064C433.386667 798.122667 339.264 827.733333 228.629333 801.237333 38.378667 755.754667-45.461333 543.274667 24.512 355.20000000000005c55.466667-148.992 323.328-360.277333 471.04-395.221333l8.192-1.706667a42.666667 42.666667 0 0 1 16.64-0.213333c143.445333 26.666667 423.552 244.778667 480.256 397.141333 69.973333 188.074667-13.866667 400.554667-204.074667 446.037333-110.976 26.538667-205.141333-3.242667-277.333333-86.016l-6.698667-7.936z"  horiz-adv-x="1025" />

    
    <glyph glyph-name="r-shoucang-12" unicode="&#59096;" d="M512.533333 707.285333l-6.826666 8.064C433.386667 798.122667 339.264 827.733333 228.629333 801.237333 38.378667 755.754667-45.461333 543.274667 24.512 355.20000000000005c55.466667-148.992 323.328-360.277333 471.04-395.221333l8.192-1.706667a42.666667 42.666667 0 0 1 16.64-0.213333c143.445333 26.666667 423.552 244.778667 480.256 397.141333 69.973333 188.074667-13.866667 400.554667-204.074667 446.037333-110.976 26.538667-205.141333-3.242667-277.333333-86.016l-6.698667-7.936z m-42.538666-86.528l6.229333-10.112a42.666667 42.666667 0 0 1 73.045333 0.512c57.429333 96.682667 130.218667 130.346667 227.413334 107.093334 135.509333-32.426667 197.504-189.525333 144-333.269334l-3.285334-8.106666c-51.2-118.058667-278.528-297.216-396.842666-331.136l-7.850667-2.048 1.536-0.426667c-120.533333 28.501333-364.928 221.226667-409.770667 341.717333-53.504 143.786667 8.533333 300.885333 143.957334 333.269334 94.122667 22.528 165.034667-8.277333 221.568-97.493334z"  horiz-adv-x="1025" />

    
    <glyph glyph-name="r-banben-12" unicode="&#59087;" d="M582.314667 810.666667c14.464 0 27.264-7.253333 34.986666-18.261334l2.901334-4.608 210.261333-210.261333a38.485333 38.485333 0 0 0 5.76-7.338667c9.130667-6.826667 15.445333-17.237333 16.810667-29.184l0.298666-4.949333V42.66666699999996a85.333333 85.333333 0 0 0-78.933333-85.12L768-42.66666699999996H256a85.333333 85.333333 0 0 0-85.12 78.933334L170.666667 42.66666699999996V725.333333a85.333333 85.333333 0 0 0 78.933333 85.12L256 810.666667h326.314667zM554.666667 725.333333H256v-682.666666h512V512h-170.666667a42.666667 42.666667 0 0 0-42.666666 42.666667V725.333333z m85.333333-469.333333a42.666667 42.666667 0 0 0 0-85.333333H384a42.666667 42.666667 0 0 0 0 85.333333h256z m0 391.338667V597.333333h50.005333L640 647.338667z"  horiz-adv-x="1024" />

    
    <glyph glyph-name="r-xiazai-16" unicode="&#59088;" d="M864 256a32 32 0 0 0 32-32v-192a32 32 0 0 0-26.24-31.488L864 0h-704a32 32 0 0 0-32 32v192a32 32 0 1 0 64 0L191.936 64H832v160a32 32 0 0 0 32 32zM512 832a32 32 0 0 0 32-32v-527.424l171.648 171.52a32 32 0 0 0 45.248-45.248l-226.24-226.24a32 32 0 0 0-45.312 0L263.104 398.848a32 32 0 0 0 45.248 45.248l171.584-171.52L480 800A32 32 0 0 0 512 832z"  horiz-adv-x="1024" />

    
    <glyph glyph-name="r-shoucangjia-16" unicode="&#59089;" d="M832 768a64 64 0 0 0 64-64v-640a64 64 0 0 0-64-64H192a64 64 0 0 0-64 64V704a64 64 0 0 0 64 64h640zM355.2 288H192V64h640V288h-163.264l-1.984-8.96a160.128 160.128 0 0 0-144.256-118.72L512 160c-74.24 0-136.64 50.56-154.752 119.04L355.2 288zM832 704H192v-352h192a32 32 0 0 0 32-32 96 96 0 0 1 192 0 32 32 0 0 0 26.24 31.488L640 352h192V704z m-160-128a32 32 0 1 0 0-64h-320a32 32 0 0 0 0 64h320z"  horiz-adv-x="1024" />

    
    <glyph glyph-name="r-gongzuotai-16" unicode="&#59090;" d="M288 0a32 32 0 1 0 0 64H384v64H149.312A85.312 85.312 0 0 0 64 213.312V682.688C64 729.792 102.208 768 149.312 768h725.376C921.792 768 960 729.792 960 682.688v-469.376c0-47.104-38.208-85.312-85.312-85.312H640v-64h96a32 32 0 1 0 0-64h-448zM576 64v64H448l-0.064-64H576z m298.688 640H149.312a21.312 21.312 0 0 1-20.864-17.024L128 682.688v-469.376c0-10.24 7.296-18.88 17.024-20.864l4.288-0.448h725.376a21.312 21.312 0 0 1 20.864 17.024l0.448 4.288V682.688a21.312 21.312 0 0 1-17.024 20.864L874.688 704zM352 448a32 32 0 0 0 32-32v-128a32 32 0 0 0-64 0v128a32 32 0 0 0 32 32zM512 576a32 32 0 0 0 32-32v-256a32 32 0 0 0-64 0v256A32 32 0 0 0 512 576z m160-64a32 32 0 0 0 32-32v-192a32 32 0 1 0-64 0v192a32 32 0 0 0 32 32z"  horiz-adv-x="1024" />

    
    <glyph glyph-name="r-sousuo-16" unicode="&#59298;" d="M448 832a384 384 0 0 0 278.08-648.832l187.072-187.072a32 32 0 0 0-40.832-48.96l-4.48 3.712-189.696 189.76A384 384 0 1 0 448 832z m0-64a320 320 0 1 1 0-640A320 320 0 0 1 448 768z"  horiz-adv-x="1024" />

    
    <glyph glyph-name="r-shijian-24" unicode="&#59314;" d="M789.333333 341.33333300000004a42.325333 42.325333 0 0 0-36.864-42.368l-4.864-0.298666H469.333333a42.24 42.24 0 0 0-41.728 42.666666c0 21.888 16.128 39.936 36.864 42.368L469.333333 384h278.272a42.24 42.24 0 0 0 41.728-42.666667zM469.333333 618.666667c21.888 0 39.936-14.08 42.368-32.256l0.298667-4.266667v-225.621333c0-20.181333-19.114667-36.522667-42.666667-36.522667-21.888 0-39.936 14.08-42.368 32.256l-0.298666 4.266667V582.144c0 20.181333 19.114667 36.522667 42.666666 36.522667zM512 853.333333c259.2 0 469.333333-210.133333 469.333333-469.333333s-210.133333-469.333333-469.333333-469.333333S42.666667 124.79999999999995 42.666667 384 252.8 853.333333 512 853.333333z m0-85.333333a384 384 0 1 1 0-768 384 384 0 0 1 0 768z"  horiz-adv-x="1024" />

    
    <glyph glyph-name="r-shangchuan-24" unicode="&#59315;" d="M538.24 630.826667l3.712-3.285334 170.88-170.666666a42.666667 42.666667 0 0 0-56.576-63.701334l-3.754667 3.285334L554.666667 494.250667V196.26666699999998c0-25.941333-19.114667-46.933333-42.666667-46.933334-21.888 0-39.936 18.133333-42.368 41.472L469.333333 196.26666699999998V494.506667l-97.792-98.005334a42.666667 42.666667 0 0 0-56.618666-3.328l-3.754667 3.285334a42.666667 42.666667 0 0 0-3.328 56.618666l3.285333 3.754667 170.496 170.666667a42.666667 42.666667 0 0 0 56.618667 3.328zM512 853.333333c259.2 0 469.333333-210.133333 469.333333-469.333333s-210.133333-469.333333-469.333333-469.333333S42.666667 124.79999999999995 42.666667 384 252.8 853.333333 512 853.333333z m0-85.333333a384 384 0 1 1 0-768 384 384 0 0 1 0 768z"  horiz-adv-x="1024" />

    
    <glyph glyph-name="r-yigeren-241" unicode="&#59319;" d="M640 384a256 256 0 0 0 256-256v-192a64 64 0 0 0-64-64h-640A64 64 0 0 0 128-64V128a256 256 0 0 0 256 256h256z m0-85.333333H384a170.666667 170.666667 0 0 1-170.453333-162.133334L213.333333 128v-170.666667h597.333334v170.666667a170.666667 170.666667 0 0 1-162.133334 170.453333L640 298.66666699999996zM512 896a213.333333 213.333333 0 1 0 0-426.666667 213.333333 213.333333 0 0 0 0 426.666667z m0-85.333333a128 128 0 1 1 0-256 128 128 0 0 1 0 256z"  horiz-adv-x="1024" />

    
    <glyph glyph-name="r-bianji" unicode="&#59279;" d="M512 810.666667a42.666667 42.666667 0 0 0 4.992-85.034667L512 725.333333H213.333333a42.666667 42.666667 0 0 1-42.368-37.674666L170.666667 682.666667v-597.333334a42.666667 42.666667 0 0 1 37.674666-42.368L213.333333 42.66666699999996h597.333334a42.666667 42.666667 0 0 1 42.368 37.674666L853.333333 85.33333300000004v298.666667a42.666667 42.666667 0 0 0 85.034667 4.992L938.666667 384v-298.666667a128 128 0 0 0-120.490667-127.786666L810.666667-42.66666699999996H213.333333a128 128 0 0 0-127.786666 120.490667L85.333333 85.33333300000004V682.666667a128 128 0 0 0 120.490667 127.786666L213.333333 810.666667h298.666667zM857.557333 778.496a42.666667 42.666667 0 0 0 63.872-56.32l-3.541333-4.010667-482.730667-482.730666a42.666667 42.666667 0 0 0-63.872 56.32l3.541334 4.010666L857.557333 778.496z"  horiz-adv-x="1024" />

    
    <glyph glyph-name="r-jiahao" unicode="&#59282;" d="M512 810.666667a42.666667 42.666667 0 0 0 42.368-37.674667L554.666667 768v-341.290667L896 426.666667a42.666667 42.666667 0 0 0 4.992-85.034667L896 341.33333300000004l-341.333333 0.042667V0a42.666667 42.666667 0 0 0-85.034667-4.992L469.333333 0v341.376L128 341.33333300000004a42.666667 42.666667 0 0 0-4.992 85.034667L128 426.666667l341.333333 0.042666V768a42.666667 42.666667 0 0 0 42.666667 42.666667z"  horiz-adv-x="1024" />

    
    <glyph glyph-name="r-gouxuan-16" unicode="&#59297;" d="M124.16 412.16a32 32 0 0 0 40.768 3.648l4.48-3.712 248.832-248.96 429.952 430.016a32 32 0 0 0 40.832 3.648l4.48-3.648a32 32 0 0 0 3.648-40.832l-3.712-4.48-452.48-452.48a32 32 0 0 0-40.896-3.712l-4.416 3.648L124.16 366.84799999999996a32 32 0 0 0 0 45.248z"  horiz-adv-x="1024" />

    
    <glyph glyph-name="r-fangdajing2" unicode="&#59321;" d="M469.333333 853.333333c235.648 0 426.666667-191.018667 426.666667-426.666666a424.917333 424.917333 0 0 0-96.298667-270.037334l161.834667-161.792a42.666667 42.666667 0 0 0-60.373333-60.373333l-161.792 161.834667A424.917333 424.917333 0 0 0 469.333333 0C233.685333 0 42.666667 191.01866700000005 42.666667 426.666667S233.685333 853.333333 469.333333 853.333333z m0-85.333333a341.333333 341.333333 0 1 1 0-682.666667 341.333333 341.333333 0 0 1 0 682.666667z"  horiz-adv-x="1024" />

    
    <glyph glyph-name="r-you-12" unicode="&#59326;" d="M362.922667 818.858667a48.810667 48.810667 0 0 0 62.208 5.632l6.741333-5.632L845.653333 405.077333c16.896-16.896 18.773333-43.178667 5.632-62.208l-5.632-6.741333-413.866666-413.781333a48.725333 48.725333 0 0 0-74.496 62.293333l5.632 6.656 379.136 379.306667-379.136 379.306666a48.810667 48.810667 0 0 0-5.632 62.208l5.632 6.741334z"  horiz-adv-x="1024" />

    
    <glyph glyph-name="r-xia-12" unicode="&#59328;" d="M962.901333 545.024c16.896-16.896 18.773333-43.178667 5.632-62.208l-5.632-6.741333-413.781333-413.696a48.810667 48.810667 0 0 0-62.208-5.717334l-6.741333 5.717334L66.389333 476.074667a48.725333 48.725333 0 0 0 62.293334 74.666666l6.741333-5.717333L514.56 165.88800000000003l379.306667 379.136a48.810667 48.810667 0 0 0 62.208 5.717333l6.741333-5.717333z"  horiz-adv-x="1024" />

    
    <glyph glyph-name="r-zuo-12" unicode="&#59329;" d="M654.933333-77.65333299999998a48.810667 48.810667 0 0 0-62.293333-5.632l-6.656 5.632-413.866667 413.866666a48.810667 48.810667 0 0 0-5.546666 62.122667l5.632 6.826667L585.984 818.773333a48.725333 48.725333 0 0 0 74.581333-62.208l-5.632-6.826666L275.626667 370.688l379.221333-379.306667c16.896-16.896 18.773333-43.178667 5.632-62.208l-5.632-6.741333z"  horiz-adv-x="1024" />

    
    <glyph glyph-name="r-shang-12" unicode="&#59330;" d="M66.389333 220.15999999999997a48.810667 48.810667 0 0 0-5.632 62.122667l5.632 6.826666 413.866667 413.696a48.810667 48.810667 0 0 0 62.122667 5.632l6.826666-5.632 413.696-413.781333a48.725333 48.725333 0 0 0-62.208-74.581333l-6.826666 5.632-379.221334 379.221333-379.221333-379.221333a48.810667 48.810667 0 0 0-62.293333-5.632L66.474667 220.15999999999997z"  horiz-adv-x="1024" />

    
    <glyph glyph-name="s-shezhiyanseon-14" unicode="&#59085;" d="M804.571429 310.85714299999995a146.285714 146.285714 0 0 0-146.285715-146.285714H292.571429a73.142857 73.142857 0 0 1 64.585142-72.630858L365.714286 91.42857100000003h512a73.142857 73.142857 0 0 1 72.630857 64.585143L950.857143 164.57142899999997V457.142857a73.142857 73.142857 0 0 1-64.585143 72.630857L877.714286 530.285714h-73.142857v-219.428571zM596.48 614.985143l-157.184-149.942857-102.765714 68.022857a36.571429 36.571429 0 0 1-44.470857-7.533714L82.651429 320.585143a36.571429 36.571429 0 0 1 27.062857-61.220572h512a36.571429 36.571429 0 0 1 36.571428 36.571429v292.571429a36.571429 36.571429 0 0 1-61.805714 26.477714zM585.142857 503.149714v-170.569143H192.365714l134.582857 122.587429 100.937143-67.145143a36.571429 36.571429 0 0 1 42.715429 5.705143L585.142857 503.222857zM182.857143 676.571429a36.571429 36.571429 0 1 1 0-73.142858 36.571429 36.571429 0 0 1 0 73.142858zM146.285714 164.57142899999997a146.285714 146.285714 0 0 0-146.285714 146.285714V603.4285709999999a146.285714 146.285714 0 0 0 146.285714 146.285715h512a146.285714 146.285714 0 0 0 146.285715-146.285715h73.142857a146.285714 146.285714 0 0 0 146.285714-146.285714v-292.571428a146.285714 146.285714 0 0 0-146.285714-146.285715H365.714286a146.285714 146.285714 0 0 0-146.285715 146.285715H146.285714z"  horiz-adv-x="1024" />

    
    <glyph glyph-name="r-shezhiyanseoff-14" unicode="&#59086;" d="M658.285714 749.714286a146.285714 146.285714 0 0 0 146.285715-146.285715h73.142857a146.285714 146.285714 0 0 0 146.285714-146.285714v-292.571428a146.285714 146.285714 0 0 0-146.285714-146.285715H365.714286a146.285714 146.285714 0 0 0-146.285715 146.285715H146.285714c-4.242286 0-8.484571 0.146286-12.653714 0.512L146.285714 164.57142899999997c-5.12 0-10.166857 0.292571-15.067428 0.731428l-13.385143 2.048-11.629714 2.779429c-7.753143 2.194286-15.36 5.12-22.528 8.484571L70.948571 185.49028599999997l-10.825142 7.168-9.728 7.826285-8.118858 7.606858L34.377143 216.50285699999995l-4.900572 6.217143A145.627429 145.627429 0 0 0 0 310.85714299999995V603.4285709999999a146.285714 146.285714 0 0 0 146.285714 146.285715h512z m219.428572-219.428572h-73.142857v-219.428571a146.285714 146.285714 0 0 0-135.314286-145.92L658.285714 164.57142899999997H292.571429a73.142857 73.142857 0 0 1 64.585142-72.630858L365.714286 91.42857100000003h512a73.142857 73.142857 0 0 1 72.630857 64.585143L950.857143 164.57142899999997V457.142857a73.142857 73.142857 0 0 1-64.585143 72.630857L877.714286 530.285714zM292.571429 371.492571L158.866286 237.71428600000002h267.410285L292.571429 371.492571z m292.571428 103.424L438.930286 328.777143l90.770285-90.989714h57.051429l9.874286 0.365714a146.432 146.432 0 0 1 126.976 98.450286L585.142857 474.843429zM658.285714 676.571429H146.285714a73.142857 73.142857 0 0 1-72.630857-64.585143L73.142857 603.4285709999999v-292.571428c0-15.725714 4.973714-30.208 13.385143-42.130286l154.331429 154.477714a73.142857 73.142857 0 0 0 103.424 0l42.861714-42.861714 146.285714 146.285714a73.142857 73.142857 0 0 0 103.424 0L731.428571 432.054857V603.4285709999999a73.142857 73.142857 0 0 1-64.585142 72.630858L658.285714 676.571429zM182.857143 603.4285709999999a36.571429 36.571429 0 1 0 0-73.142857 36.571429 36.571429 0 0 0 0 73.142857z"  horiz-adv-x="1024" />

    
    <glyph glyph-name="r-tusepu-12" unicode="&#59082;" d="M512 810.666667a425.173333 425.173333 0 0 0 291.456-115.072l10.666667-10.325334A425.344 425.344 0 0 0 938.666667 384a425.173333 425.173333 0 0 0-115.072-291.456l-10.325334-10.666667A425.344 425.344 0 0 0 512-42.66666699999996a425.173333 425.173333 0 0 0-291.456 115.072l-10.666667 10.325334A425.344 425.344 0 0 0 85.333333 384a425.173333 425.173333 0 0 0 115.072 291.456l10.325334 10.666667A425.344 425.344 0 0 0 512 810.666667zM383.146667 213.93066699999997l-6.144 4.906666-121.045334-121.045333a382.464 382.464 0 0 1 234.709334-97.194667v171.093334l1.621333-0.128a212.224 212.224 0 0 0-109.098667 42.368z m159.488-41.088l-9.258667-1.109334v-171.136a382.464 382.464 0 0 1 234.666667 97.194667l-121.045334 121.045333 2.090667 1.706667a212.437333 212.437333 0 0 0-106.453333-47.701333z m-241.792 180.48l-1.109334 9.386666H128.597333a382.464 382.464 0 0 1 97.194667-234.752l121.045333 121.045334 1.365334-1.706667a212.437333 212.437333 0 0 0-47.36 106.026667z m381.482666-97.792l-5.12-6.528 121.002667-121.045334a382.464 382.464 0 0 1 97.194667 234.666667h-171.093334l0.128 1.749333a212.224 212.224 0 0 0-42.112-108.8zM512 554.666667a170.666667 170.666667 0 1 1 0-341.333334 170.666667 170.666667 0 0 1 0 341.333334zM225.792 640a382.464 382.464 0 0 1-97.194667-234.666667h171.093334l-0.128-1.706666a212.224 212.224 0 0 0 42.112 108.8l5.12 6.570666-121.002667 121.045334z m572.416 0L677.12 519.04l-1.365333 1.706667c24.746667-29.610667 41.6-66.005333 47.36-106.026667l1.109333-9.386667h171.136a382.464 382.464 0 0 1-97.194667 234.752zM490.666667 767.445333A382.464 382.464 0 0 1 256 670.208L376.96 549.12l-1.706667-1.365333a212.437333 212.437333 0 0 0 106.026667 47.36l9.386667 1.109333V767.4026670000001z m42.666666 0v-171.093333l-1.706666 0.128a212.224 212.224 0 0 0 108.8-42.112l6.570666-5.12 121.045334 121.002667a382.464 382.464 0 0 1-234.666667 97.194666z"  horiz-adv-x="1024" />

    
    <glyph glyph-name="r-ase-12" unicode="&#59083;" d="M680.746667 810.666667a85.333333 85.333333 0 0 0 59.008-23.68l129.92-124.330667A85.333333 85.333333 0 0 0 896 601.002667V42.66666699999996a85.333333 85.333333 0 0 0-85.333333-85.333334H213.333333a85.333333 85.333333 0 0 0-85.333333 85.333334V725.333333a85.333333 85.333333 0 0 0 85.333333 85.333334h467.413334zM661.333333 768H213.333333a42.666667 42.666667 0 0 1-42.368-37.674667L170.666667 725.333333v-682.666666a42.666667 42.666667 0 0 1 37.674666-42.368L213.333333 0h597.333334a42.666667 42.666667 0 0 1 42.368 37.674667L853.333333 42.66666699999996V576h-128a64 64 0 0 0-63.701333 57.856L661.333333 640V768z m-356.309333-393.728c23.466667 0 40.96-2.773333 52.48-8.32s19.626667-12.629333 24.32-21.205333c4.096-7.466667 6.4-20.48 6.912-38.912l0.085333-8.234667-0.554666-61.482667c0-17.493333 0.853333-30.421333 2.56-38.741333 1.28-6.229333 3.328-12.8 6.272-19.712L400.213333 170.66666699999996H348.16l-2.304 6.528-4.650667 15.232c-8.96-8.746667-18.602667-15.36-28.885333-19.712-10.24-4.352-21.162667-6.528-32.810667-6.528-20.48 0-36.650667 5.546667-48.469333 16.64a55.466667 55.466667 0 0 0-17.706667 42.24c0 11.221333 2.688 21.248 8.064 30.08 5.376 8.789333 12.885333 15.530667 22.613334 20.224a154.453333 154.453333 0 0 0 33.109333 10.496l25.813333 5.205333c13.056 2.816 23.125333 5.461333 30.250667 8.021333l3.882667 1.493334v5.248c0 10.154667-2.474667 17.365333-7.466667 21.674666-5.034667 4.309333-14.464 6.485333-28.330667 6.485334-9.386667 0-16.682667-1.877333-21.930666-5.546667a33.578667 33.578667 0 0 1-10.666667-14.208l-2.090667-5.205333-47.786666 8.618666c5.333333 19.242667 14.592 33.493333 27.733333 42.752 13.098667 9.258667 32.597333 13.866667 58.453333 13.866667z m201.130667 0c27.306667 0 47.530667-4.437333 60.757333-13.312 11.349333-7.594667 19.712-18.346667 25.002667-32.170667l2.389333-7.168-49.706667-9.216a30.72 30.72 0 0 1-12.074666 17.834667c-5.973333 4.096-14.421333 6.186667-25.429334 6.186667-13.866667 0-23.808-1.962667-29.781333-5.802667a12.501333 12.501333 0 0 1-6.016-10.709333c0-3.754667 1.749333-6.954667 5.248-9.557334a22.528 22.528 0 0 1 4.266667-2.261333l7.04-2.645333c2.816-0.896 6.101333-1.92 9.813333-2.986667l12.672-3.285333 15.445333-3.626667c28.032-6.4 47.658667-14.208 58.752-23.466667 11.008-9.386667 16.512-22.4 16.512-39.168 0-18.261333-7.637333-33.92-22.869333-47.061333-15.274667-13.141333-37.802667-19.669333-67.712-19.669333-27.093333 0-48.554667 5.461333-64.426667 16.469333a75.477333 75.477333 0 0 0-28.885333 37.930667l-2.133333 6.912 52.906666 8.064c2.261333-10.24 6.826667-18.048 13.653334-23.381334 6.912-5.290667 16.512-7.936 28.885333-7.936 13.653333 0 23.893333 2.474667 30.762667 7.466667a16.725333 16.725333 0 0 1 6.954666 14.08 13.824 13.824 0 0 1-3.754666 9.941333c-2.645333 2.474667-8.533333 4.821333-17.621334 6.912l-19.968 4.650667-17.365333 4.48-14.762667 4.352c-13.44 4.266667-23.04 8.362667-28.714666 12.245333a51.285333 51.285333 0 0 0-23.637334 44.8c0 17.237333 6.826667 31.744 20.437334 43.52 13.653333 11.733333 34.730667 17.578667 63.36 17.578667z m209.792 0c29.610667 0 52.992-9.770667 70.144-29.312 15.530667-17.792 23.722667-44.16 24.533333-79.146667v-10.752h-132.010667c0.426667-15.658667 4.650667-27.818667 12.8-36.48 8.106667-8.704 18.218667-13.056 30.336-13.056a32.256 32.256 0 0 1 20.821334 6.784 37.034667 37.034667 0 0 1 10.88 16.042667l1.877333 5.674667 52.48-8.789334c-6.741333-19.242667-17.408-33.92-31.957333-43.946666-14.549333-10.112-32.768-15.104-54.613334-15.104-34.645333 0-60.288 11.306667-76.928 33.92-13.098667 18.133333-19.669333 40.96-19.669333 68.608 0 33.024 8.618667 58.88 25.856 77.525333 17.28 18.688 39.082667 28.032 65.450667 28.032z m-378.88-107.946667l-3.669334-1.194666-9.386666-2.56-11.989334-2.816-6.997333-1.536c-14.634667-3.114667-24.192-6.186667-28.672-9.173334a21.973333 21.973333 0 0 1-10.325333-18.56c0-7.381333 2.730667-13.738667 8.234666-19.114666a28.8 28.8 0 0 1 20.992-8.106667c9.514667 0 18.56 3.157333 27.221334 9.386667a32.981333 32.981333 0 0 1 12.544 17.493333c1.152 3.712 1.834667 10.282667 2.005333 19.669333l0.042667 16.469334z m382.08 67.669334a36.608 36.608 0 0 1-28.501334-12.586667c-6.272-6.954667-9.856-16.042667-10.837333-27.178667l-0.256-6.954666h78.762667c-0.384 15.274667-4.266667 26.88-11.818667 34.816a36.266667 36.266667 0 0 1-27.349333 11.904z m-15.061334 427.093333L704 640a21.333333 21.333333 0 0 1 17.493333-20.992L725.333333 618.666667h124.16a42.666667 42.666667 0 0 1-5.973333 9.514666l-3.370667 3.669334-129.877333 124.288a42.666667 42.666667 0 0 1-6.186667 4.906666z"  horiz-adv-x="1024" />

    
    <glyph glyph-name="r-4ddat-12" unicode="&#59084;" d="M680.746667 810.666667a85.333333 85.333333 0 0 0 59.008-23.68l129.92-124.330667A85.333333 85.333333 0 0 0 896 601.002667V42.66666699999996a85.333333 85.333333 0 0 0-85.333333-85.333334H213.333333a85.333333 85.333333 0 0 0-85.333333 85.333334V725.333333a85.333333 85.333333 0 0 0 85.333333 85.333334h467.413334zM661.333333 768H213.333333a42.666667 42.666667 0 0 1-42.368-37.674667L170.666667 725.333333v-682.666666a42.666667 42.666667 0 0 1 37.674666-42.368L213.333333 0h597.333334a42.666667 42.666667 0 0 1 42.368 37.674667L853.333333 42.66666699999996V576h-128a64 64 0 0 0-63.701333 57.856L661.333333 640V768z m0-298.666667a21.333333 21.333333 0 0 0 20.992-17.493333l0.341334-3.84v-47.786667a21.333333 21.333333 0 0 0-7.594667-16.298666l-6.144-4.309334a21.290667 21.290667 0 0 1 0-32.682666l6.144-4.309334a21.333333 21.333333 0 0 0 7.253333-12.544l0.341334-3.754666v-54.101334a21.333333 21.333333 0 0 0-7.594667-16.298666l-6.144-4.309334a21.290667 21.290667 0 0 1 0-32.682666l6.144-4.309334a21.333333 21.333333 0 0 0 7.253333-12.544l0.341334-3.754666V149.33333300000004a21.333333 21.333333 0 0 0-17.493334-20.992L661.333333 128h-48.042666a21.333333 21.333333 0 0 0-16.469334 7.808l-4.266666 6.314667a21.290667 21.290667 0 0 1-33.066667 0l-4.266667-6.314667a21.333333 21.333333 0 0 0-12.714666-7.466667l-3.797334-0.341333h-53.418666a21.333333 21.333333 0 0 0-16.469334 7.808l-4.266666 6.314667a21.290667 21.290667 0 0 1-33.066667 0l-4.266667-6.314667a21.333333 21.333333 0 0 0-12.714666-7.466667L410.709333 128H362.666667a21.333333 21.333333 0 0 0-20.992 17.493333L341.333333 149.33333300000004V198.39999999999998a21.333333 21.333333 0 0 0 7.594667 16.256l6.144 4.309333a21.290667 21.290667 0 0 1 0 32.682667l-6.144 4.266667a21.333333 21.333333 0 0 0-7.253333 12.586666l-0.298667 3.754667v54.101333a21.333333 21.333333 0 0 0 7.552 16.298667l6.144 4.309333a21.290667 21.290667 0 0 1 0 32.682667l-6.144 4.266667a21.333333 21.333333 0 0 0-7.253333 12.586666l-0.298667 3.712L341.333333 448a21.333333 21.333333 0 0 0 17.493334 21.034667L362.666667 469.333333h48.768a21.333333 21.333333 0 0 0 16.085333-7.381333l4.352-5.973333a21.290667 21.290667 0 0 1 32.256 0l4.352 5.973333a21.333333 21.333333 0 0 0 12.416 7.04l3.712 0.298667h54.784a21.333333 21.333333 0 0 0 16.128-7.338667l4.352-5.973333a21.290667 21.290667 0 0 1 32.256 0l4.352 5.973333a21.333333 21.333333 0 0 0 12.416 7.04l3.669333 0.298667L661.333333 469.333333z m-21.333333-42.624l-16.896-0.042666-3.541333-3.626667a63.914667 63.914667 0 0 0-30.421334-15.786667l-6.997333-1.024-6.144-0.298666c-14.165333 0-27.52 4.650667-38.4 12.8l-5.162667 4.309333-3.541333 3.626667h-33.834667l-3.498666-3.626667a63.914667 63.914667 0 0 0-30.421334-15.786667l-6.997333-1.024-6.144-0.298666c-14.165333 0-27.52 4.650667-38.4 12.8l-5.162667 4.309333L400.853333 426.666667l-16.896 0.042666 0.042667-15.786666 3.712-3.541334c8.32-8.746667 14.08-19.754667 16.426667-31.786666l0.853333-6.101334 0.341333-6.229333c0-14.677333-4.992-28.501333-13.653333-39.552l-3.968-4.565333-3.712-3.498667v-32.725333l3.712-3.541334c8.32-8.746667 14.08-19.754667 16.426667-31.786666l0.853333-6.101334 0.341333-6.229333c0-14.677333-4.992-28.501333-13.653333-39.552l-3.968-4.565333-3.712-3.498667-0.042667-16.981333 15.872 0.042666 3.498667 3.712c8.789333 8.576 19.925333 14.506667 32.128 16.938667l6.186667 0.938667 6.357333 0.298666c14.933333 0 28.970667-5.162667 40.106667-14.08l4.565333-4.096 3.456-3.712h31.701333l3.498667 3.712c8.789333 8.576 19.925333 14.506667 32.128 16.938667l6.186667 0.938667 6.357333 0.298666c14.933333 0 28.970667-5.162667 40.106667-14.08l4.565333-4.096 3.456-3.712L640 170.66666699999996l-0.042667 16.981333-3.626666 3.498667a63.914667 63.914667 0 0 0-16.469334 31.786666l-0.853333 6.101334-0.341333 6.229333c0 14.677333 4.992 28.544 13.696 39.594667l3.968 4.522666 3.626666 3.541334v32.725333l-3.626666 3.498667a63.914667 63.914667 0 0 0-16.469334 31.786666l-0.853333 6.101334-0.341333 6.229333c0 14.677333 4.992 28.544 13.696 39.594667l3.968 4.522666 3.626666 3.541334 0.042667 15.786666z m-172.8-112.938666l60.373333-60.330667a21.333333 21.333333 0 0 0-30.165333-30.165333l-60.330667 60.330666a21.333333 21.333333 0 0 0 30.165334 30.165334z m60.373333 60.330666l60.330667-60.330666a21.333333 21.333333 0 1 0-30.165333-30.165334l-60.330667 60.330667a21.333333 21.333333 0 1 0 30.165333 30.165333z m176.512 386.986667L704 640a21.333333 21.333333 0 0 1 17.493333-20.992L725.333333 618.666667h124.16a42.666667 42.666667 0 0 1-5.973333 9.514666l-3.370667 3.669334-129.877333 124.288a42.666667 42.666667 0 0 1-6.186667 4.906666z"  horiz-adv-x="1024" />

    
    <glyph glyph-name="r-bianji-16" unicode="&#59307;" d="M864 0a32 32 0 1 0 0-64h-384a32 32 0 1 0 0 64h384zM561.088 836.224A96 96 0 0 0 689.28 847.296l7.488-6.4 140.416-130.88a96 96 0 0 0 11.072-128.192l-6.336-7.488-515.2-552.512a32 32 0 0 0-13.248-8.512l-5.12-1.28-216.192-34.112a64 64 0 0 0-73.152 53.248l-0.768 7.68 0.192 7.808 18.944 217.984a32 32 0 0 0 5.184 14.848l3.328 4.224L561.088 836.224z m92.032-42.112a32 32 0 0 1-40.96 2.304l-4.288-3.84-507.648-544.448-17.984-206.976 205.184 32.384 507.712 544.448a32 32 0 0 1 5.184 36.096l-2.944 4.8-3.84 4.288-140.416 130.944z"  horiz-adv-x="1024" />

    
    <glyph glyph-name="r-yanjingdakai-18" unicode="&#59080;" d="M511.032889 725.333333c155.534222 0 269.312-83.456 341.333333-163.100444 37.944889-41.699556 64.512-79.644444 83.456-109.966222l18.944-37.944889c3.811556-3.754667 7.623111-15.132444 7.623111-15.132445 3.754667-11.377778 3.754667-19.000889 0-30.378666 0 0-3.811556-11.377778-7.623111-15.132445-3.754667-11.377778-11.377778-22.755556-18.944-37.944889-18.944-30.321778-45.511111-68.266667-83.456-109.966222-72.021333-79.644444-185.799111-163.100444-341.333333-163.100444-155.477333 0-269.255111 83.456-341.333333 163.100444A763.790222 763.790222 0 0 0 86.300444 315.733333l-19.000888 37.944889c-3.754667 3.754667-7.566222 15.132444-7.566223 15.132445-3.811556 7.623111-3.811556 19.000889 0 30.378666 0 0 3.811556 11.377778 7.566223 15.132445 3.811556 11.377778 11.377778 22.755556 19.000888 37.944889 18.944 30.321778 45.511111 68.266667 83.399112 109.966222C241.777778 641.877333 355.555556 725.333333 511.032889 725.333333z m0-75.832889c-125.155556 0-219.932444-68.266667-288.199111-140.344888-30.378667-34.133333-53.134222-72.078222-72.078222-98.588445-7.566222-11.377778-11.377778-19.000889-15.189334-26.567111 3.811556-7.566222 7.623111-15.189333 15.189334-26.567111 15.189333-26.510222 37.944889-64.455111 72.078222-98.588445 68.266667-72.078222 163.043556-140.344889 288.199111-140.344888 125.155556 0 219.989333 68.266667 288.256 140.344888 30.321778 34.133333 56.888889 72.078222 72.078222 98.588445 3.754667 11.377778 11.377778 19.000889 15.132445 26.567111a217.543111 217.543111 0 0 1-15.132445 26.567111C856.177778 437.077333 833.422222 475.022222 799.288889 509.155556c-68.266667 72.078222-163.100444 140.344889-288.256 140.344888z m0-53.134222c113.777778 0 204.8-98.588444 204.8-212.366222s-91.022222-212.366222-204.8-212.366222S306.232889 270.222222 306.232889 384s91.022222 212.366222 204.8 212.366222z m0-75.832889c-68.266667 0-128.910222-60.700444-128.910222-136.533333s60.643556-136.533333 128.910222-136.533333S640 308.167111 640 384s-60.700444 136.533333-128.967111 136.533333z"  horiz-adv-x="1024" />

    
    <glyph glyph-name="r-yanjingguanbi-18" unicode="&#59081;" d="M199.338667 740.124444l679.139555-660.309333a35.953778 35.953778 0 0 0-0.455111-51.427555 38.513778 38.513778 0 0 0-52.906667-0.455112L145.976889 688.355556a35.953778 35.953778 0 0 0 0 51.882666 38.513778 38.513778 0 0 0 53.361778 0zM195.697778 529.009778a38.684444 38.684444 0 0 0 27.306666-9.500445 35.953778 35.953778 0 0 0 12.401778-25.258666 35.783111 35.783111 0 0 0-9.898666-26.282667A603.704889 603.704889 0 0 1 137.102222 346.396444c24.291556-44.032 54.044444-84.878222 88.462222-121.514666C290.759111 155.87555599999996 385.706667 90.73777800000005 512 90.73777800000005a350.947556 350.947556 0 0 1 119.466667 20.650666 38.343111 38.343111 0 0 0 48.014222-21.674666 36.124444 36.124444 0 0 0-21.447111-46.705778A429.511111 429.511111 0 0 0 512 17.63555599999995c-155.875556 0-269.653333 80.896-342.471111 158.037333a676.408889 676.408889 0 0 0-102.115556 141.482667 452.266667 452.266667 0 0 0-6.656 13.084444l-0.398222 0.796444-0.113778 0.341334v0.056889L58.026667 337.35111099999995a35.384889 35.384889 0 0 0 2.104889 23.950222v0.113778l0.113777 0.284445 0.398223 0.853333 1.422222 2.844444c7.850667 15.473778 16.497778 30.72 25.656889 45.511111A678.684444 678.684444 0 0 0 169.528889 517.006222a38.513778 38.513778 0 0 0 26.282667 11.889778z m162.360889-108.999111a36.750222 36.750222 0 0 0 28.956444-43.576889 134.257778 134.257778 0 0 1-3.128889-29.013334c0-73.671111 58.766222-130.958222 128.284445-130.958222 9.955556 0 19.626667 1.137778 28.899555 3.299556a37.774222 37.774222 0 0 0 45.511111-27.079111 36.579556 36.579556 0 0 0-27.818666-44.259556 203.662222 203.662222 0 0 0-46.592-5.290667c-113.891556 0-203.776 92.785778-203.776 204.344889 0 15.189333 1.706667 30.151111 4.835555 44.373334a36.693333 36.693333 0 0 0 16.440889 23.153777 38.456889 38.456889 0 0 0 28.444445 5.006223zM512 675.043556c155.875556 0 269.653333-80.896 342.471111-157.980445a676.522667 676.522667 0 0 0 102.115556-141.482667c2.275556-4.323556 4.551111-8.704 6.656-13.084444l0.398222-0.853333 0.113778-0.284445V361.24444400000004l2.161777-5.802666a35.384889 35.384889 0 0 0-2.104888-23.893334v-0.113777l-0.113778-0.227556-0.284445-0.682667c-6.257778-12.515556-12.970667-24.917333-20.138666-36.977777-17.863111-30.037333-38.001778-58.595556-60.302223-85.560889a38.912 38.912 0 0 0-52.906666-5.461334 35.612444 35.612444 0 0 0-6.428445 50.915556c23.893333 29.013333 45.056 60.074667 63.260445 92.956444a603.534222 603.534222 0 0 1-88.519111 121.457778C733.297778 536.8604439999999 638.350222 601.9982219999999 512 601.9982219999999a352.711111 352.711111 0 0 1-51.2-3.640889 37.774222 37.774222 0 0 0-43.235556 30.72 36.693333 36.693333 0 0 0 31.857778 41.528889c20.138667 2.901333 40.96 4.437333 62.577778 4.437334z m0.227556-123.278223c113.891556 0 203.776-92.785778 203.776-204.401777 0-13.084444-7.224889-25.201778-18.887112-31.744a38.684444 38.684444 0 0 0-37.717333 0 36.522667 36.522667 0 0 0-18.887111 31.744c0 73.728-58.766222 131.015111-128.284444 131.015111a37.205333 37.205333 0 0 0-37.717334 36.693333c0 20.252444 16.896 36.693333 37.717334 36.693333z"  horiz-adv-x="1024" />

    
    <glyph glyph-name="weixin-42" unicode="&#59079;" d="M512 896c282.770286 0 512-229.229714 512-512s-229.229714-512-512-512S0 101.229714 0 384 229.229714 896 512 896z m106.837333-434.95619c-90.282667 0-161.353143-61.830095-161.353143-137.630477 0-76.068571 71.119238-137.679238 161.353143-137.679238 16.213333 0 32.52419 3.462095 48.810667 7.460572l8.118857 2.023619 52.028953-28.525715-14.262858 47.396572 5.12 3.974095c35.498667 28.111238 61.391238 64.487619 61.391238 105.325714 0 75.849143-75.946667 137.679238-161.206857 137.679238z m-185.124571 142.336c-104.301714 0-189.732571-71.070476-189.732572-161.353143 0-49.93219 26.087619-91.306667 70.070858-123.904l5.851428-4.193524-18.968381-57.051429 66.340572 33.206857 9.898666-1.974857c19.358476-3.949714 36.230095-7.509333 56.539429-7.509333 5.948952 0 11.849143 0.26819 17.67619 0.731429a142.60419 142.60419 0 0 0-5.851428 39.789714c0.024381 82.895238 71.192381 150.162286 161.28 150.162286 6.168381 0 12.239238-0.487619 18.334476-1.145905-16.432762 76.458667-98.133333 133.241905-191.439238 133.241905z m132.803048-218.307048c14.384762 0 23.747048-9.508571 23.747047-18.944 0-9.606095-9.337905-18.968381-23.747047-18.968381-9.435429 0-18.968381 9.362286-18.968381 18.968381 0 9.435429 9.557333 18.944 18.968381 18.944z m104.350476 0c14.287238 0 23.747048-9.508571 23.747047-18.944 0-9.606095-9.45981-18.968381-23.747047-18.968381-9.337905 0-18.846476 9.362286-18.846476 18.968381 0 9.435429 9.48419 18.944 18.846476 18.944z m-166.034286 137.630476c14.336 0 23.771429-9.411048 23.771429-23.673905 0-14.214095-9.435429-23.722667-23.771429-23.722666-14.165333 0-28.452571 9.508571-28.452571 23.722666 0 14.287238 14.238476 23.673905 28.452571 23.673905z m-132.778667 0c14.238476 0 23.698286-9.386667 23.698286-23.673905 0-14.214095-9.45981-23.722667-23.698286-23.722666s-28.574476 9.508571-28.574476 23.722666c0 14.262857 14.336 23.673905 28.574476 23.673905z"  horiz-adv-x="1024" />

    
    <glyph glyph-name="s-wancheng-16" unicode="&#59078;" d="M512 896a512 512 0 1 0 0-1024A512 512 0 0 0 512 896z m257.6-353.536a48 48 0 0 1-57.6 0.384l-5.376-4.672-282.88-282.88-101.76 101.888-4.928 4.288a48 48 0 0 1-67.648-66.816l4.672-5.376 135.744-135.744 4.928-4.352a48 48 0 0 1 57.536-0.384l5.44 4.736 316.8 316.8 4.288 4.864a48 48 0 0 1 0.384 57.6l-4.736 5.376-4.864 4.288z"  horiz-adv-x="1024" />

    
    <glyph glyph-name="s-xinghao-12" unicode="&#59331;" d="M751.616-74.75199999999995l110.592 88.064-253.952 301.056 376.832 112.64-45.056 135.168-364.544-139.264 14.336 399.36h-143.36l16.384-399.36-366.592 139.264L51.2 427.008l376.832-112.64-253.952-301.056 110.592-88.064 233.472 323.584z"  horiz-adv-x="1024" />

    
    <glyph glyph-name="l-tianjia-34" unicode="&#59076;" d="M512 896a28.444444 28.444444 0 0 0 28.444444-28.444444v-455.111112h455.111112a28.444444 28.444444 0 0 0 0-56.888888H540.416L540.444444-99.55555600000002a28.444444 28.444444 0 0 0-56.888888 0l-0.028445 455.111112H28.444444a28.444444 28.444444 0 0 0 0 56.888888h455.111112V867.555556a28.444444 28.444444 0 0 0 28.444444 28.444444z"  horiz-adv-x="1024" />

    
    <glyph glyph-name="r-shanchu-14" unicode="&#59075;" d="M73.142857 676.571429m36.571429 0l804.571428 0q36.571429 0 36.571429-36.571429l0 0q0-36.571429-36.571429-36.571429l-804.571428 0q-36.571429 0-36.571429 36.571429l0 0q0 36.571429 36.571429 36.571429ZM658.285714 822.857143a73.142857 73.142857 0 0 0 73.142857-73.142857v-146.285715H292.571429V749.714286a73.142857 73.142857 0 0 0 73.142857 73.142857h292.571428z m0-73.142857H365.714286v-73.142857h292.571428V749.714286zM219.428571 18.285713999999984h585.142858V640a36.571429 36.571429 0 1 0 73.142857 0V18.285713999999984a73.142857 73.142857 0 0 0-73.142857-73.142857H219.428571a73.142857 73.142857 0 0 0-73.142857 73.142857V640a36.571429 36.571429 0 0 0 73.142857 0V18.285713999999984zM365.714286 493.714286m36.571428 0l0 0q36.571429 0 36.571429-36.571429l0-292.571428q0-36.571429-36.571429-36.571429l0 0q-36.571429 0-36.571428 36.571429l0 292.571428q0 36.571429 36.571428 36.571429ZM585.142857 493.714286m36.571429 0l0 0q36.571429 0 36.571428-36.571429l0-292.571428q0-36.571429-36.571428-36.571429l0 0q-36.571429 0-36.571429 36.571429l0 292.571428q0 36.571429 36.571429 36.571429Z"  horiz-adv-x="1024" />

    
    <glyph glyph-name="s-cuowutishi-16" unicode="&#59074;" d="M512 896a512 512 0 1 0 0-1024A512 512 0 0 0 512 896z m0-640a64 64 0 1 1 0-128 64 64 0 0 1 0 128z m-2.304 405.76c-26.432 0-53.056-16.384-56.96-41.6l-0.512-6.464 23.04-264.32c5.632-14.4 17.28-24.064 34.432-24.064a34.752 34.752 0 0 1 32 18.944l2.368 5.12 23.04 259.52c0 28.736-23.04 52.8-57.408 52.8z"  horiz-adv-x="1024" />

    
    <glyph glyph-name="r-gantanhao-12" unicode="&#59073;" d="M512 853.333333c259.2 0 469.333333-210.133333 469.333333-469.333333s-210.133333-469.333333-469.333333-469.333333S42.666667 124.79999999999995 42.666667 384 252.8 853.333333 512 853.333333z m0-85.333333a384 384 0 1 1 0-768 384 384 0 0 1 0 768z m0-298.666667a42.666667 42.666667 0 0 0 42.666667-42.666666v-256a42.666667 42.666667 0 0 0-85.333334 0v256a42.666667 42.666667 0 0 0 42.666667 42.666666z m-0.256 170.666667c12.074667 0 22.570667-3.968 30.805333-11.861333 7.68-7.936 12.117333-18.090667 12.117334-30.506667A41.856 41.856 0 0 0 511.744 554.666667a41.813333 41.813333 0 0 0-30.293333 11.861333 42.325333 42.325333 0 0 0-12.117334 31.104c0 12.416 3.84 22.613333 12.117334 30.506667a41.813333 41.813333 0 0 0 30.293333 11.861333z"  horiz-adv-x="1024" />

    
    <glyph glyph-name="s-bofanganniu-18" unicode="&#59072;" d="M295.311787 882.062323l638.118058-435.139969c35.782853-24.405157 44.373013-72.362144 19.342083-107.064115-5.290628-7.338614-11.832803-13.653235-19.342083-18.773198L295.311787-113.99803899999995a80.667862 80.667862 0 0 0-110.24987 18.716309A75.377233 75.377233 0 0 0 170.669132-51.07938200000001V819.1436659999999C170.669132 861.5824709999999 206.110654 896 249.857893 896c16.270105 0 32.14199-4.892409 45.510783-13.937677z"  horiz-adv-x="1024" />

    
    <glyph glyph-name="l-shangchuantubiao-34" unicode="&#59071;" d="M543.202184 475.648l1.536-1.445647 160.316235-159.774118a27.045647 27.045647 0 0 0-0.722824-39.243294 29.635765 29.635765 0 0 0-40.779294 0.692706l-112.850823 112.459294v-398.215529c0-15.36-12.920471-27.768471-28.852706-27.768471-15.932235 0-28.852706 12.438588-28.852706 27.768471V387.553882l-114.959059-106.917647a29.635765 29.635765 0 0 0-40.809412 0.722824 27.045647 27.045647 0 0 0 0.722824 39.243294l166.00847 154.292706a29.665882 29.665882 0 0 0 39.243295 0.752941zM512.000301 805.647059c148.540235 0 273.347765-102.098824 308.404706-240.128A249.675294 249.675294 0 0 0 1024.000301 319.84941200000003c0-137.999059-111.525647-249.856-249.072941-249.856l-3.222588 0.210823a27.708235 27.708235 0 0 0 0 55.115294l3.222588 0.210824c106.977882 0 193.716706 87.009882 193.716706 194.319059 0 92.581647-65.024 171.610353-153.901177 190.192941l-4.367058 0.873412-34.846118 6.445176-8.734118 34.424471A263.198118 263.198118 0 0 1 512.000301 750.140235a263.168 263.168 0 0 1-253.470117-193.355294l-1.295059-4.969412-8.734118-34.42447-34.876235-6.445177c-91.105882-16.865882-158.268235-97.008941-158.268236-191.09647 0-105.863529 84.389647-191.969882 189.409883-194.258824l4.306823-0.060235a27.708235 27.708235 0 1 0 3.222589-55.326118l-3.222589-0.210823C111.525948 69.99341200000003 0.000301 181.85035300000004 0.000301 319.84941200000003a249.705412 249.705412 0 0 0 203.595294 245.669647C238.652536 703.548235 363.460066 805.647059 512.000301 805.647059z"  horiz-adv-x="1024" />

    
    <glyph glyph-name="r-wendang-14" unicode="&#59070;" d="M648.155429 822.857143a73.142857 73.142857 0 0 0 7.936-0.438857 40.338286 40.338286 0 0 0 34.486857-11.373715l41.618285-41.618285 160.219429-158.646857a73.142857 73.142857 0 0 0 8.704-10.24l1.353143-1.389715c9.142857-9.142857 12.982857-21.577143 11.52-33.536 0.182857-2.304 0.292571-4.608 0.292571-6.948571V91.42857100000003a146.285714 146.285714 0 0 0-146.285714-146.285714H256a146.285714 146.285714 0 0 0-146.285714 146.285714V676.571429a146.285714 146.285714 0 0 0 146.285714 146.285714h392.155429zM621.714286 749.750857L256 749.714286a73.142857 73.142857 0 0 1-72.96-67.657143L182.857143 676.571429v-585.142858a73.142857 73.142857 0 0 1 67.657143-72.96L256 18.285713999999984h512a73.142857 73.142857 0 0 1 72.96 67.657143L841.142857 91.42857100000003V530.285714h-165.668571A53.76 53.76 0 0 0 621.714286 584.045714V749.787429zM512 237.71428600000002a36.571429 36.571429 0 0 0 0-73.142857h-146.285714a36.571429 36.571429 0 0 0 0 73.142857h146.285714z m146.285714 146.285714a36.571429 36.571429 0 0 0 0-73.142857h-292.571428a36.571429 36.571429 0 0 0 0 73.142857h292.571428z"  horiz-adv-x="1024" />

    
    <glyph glyph-name="r-shipin-14" unicode="&#59068;" d="M512 822.857143c242.358857 0 438.857143-196.498286 438.857143-438.857143s-196.498286-438.857143-438.857143-438.857143S73.142857 141.64114300000006 73.142857 384 269.641143 822.857143 512 822.857143z m0-73.142857C310.016 749.714286 146.285714 585.9839999999999 146.285714 384s163.730286-365.714286 365.714286-365.714286 365.714286 163.730286 365.714286 365.714286S713.984 749.714286 512 749.714286z m-73.142857-194.486857a36.571429 36.571429 0 0 0 20.553143-6.326858l206.262857-140.178285a36.571429 36.571429 0 0 0 0-60.525715l-206.262857-140.178285A36.571429 36.571429 0 0 0 402.285714 238.26285700000005v280.393143a36.571429 36.571429 0 0 0 36.571429 36.571429z m36.571428-105.654858v-142.226285l104.594286 71.131428L475.428571 449.572571z"  horiz-adv-x="1024" />

    
    <glyph glyph-name="r-tupian-14" unicode="&#59069;" d="M816.749714 786.285714A97.536 97.536 0 0 0 914.285714 688.749714v-609.499428A97.536 97.536 0 0 0 816.749714-18.285713999999984H207.250286A97.536 97.536 0 0 0 109.714286 79.25028599999996V688.749714A97.536 97.536 0 0 0 207.250286 786.285714h609.499428z m0-73.142857H207.250286a24.393143 24.393143 0 0 1-24.137143-20.772571L182.857143 688.749714v-609.499428c0-12.251429 9.033143-22.381714 20.772571-24.137143l3.620572-0.256h609.499428a24.393143 24.393143 0 0 1 24.137143 20.772571l0.256 3.620572V688.749714a24.393143 24.393143 0 0 1-20.772571 24.137143L816.749714 713.142857z m-55.881143-187.904a24.393143 24.393143 0 0 0 7.131429-17.225143v-355.620571a24.393143 24.393143 0 0 0-24.393143-24.393143H388.022857a24.502857 24.502857 0 0 0-4.754286 0.475429l-128.475428 0.073142a24.393143 24.393143 0 0 0-17.298286 41.545143l224.731429 226.633143a24.393143 24.393143 0 0 0 31.451428 2.706286l3.181715-2.706286 50.285714-50.724571 179.273143 179.2c9.508571 9.545143 24.941714 9.545143 34.486857 0z m-66.048-134.985143l-96-95.963428a73.142857 73.142857 0 0 0-98.998857-4.096l-4.644571 4.315428-15.689143 15.835429-107.812571-108.726857h11.629714a73.142857 73.142857 0 0 0 4.754286-0.182857l3.218285-0.292572h303.542857v189.110857zM347.428571 603.4285709999999a54.857143 54.857143 0 1 0 0-109.714285 54.857143 54.857143 0 0 0 0 109.714285z"  horiz-adv-x="1024" />

    


  </font>
</defs>
</svg>
